PathFileType	4	(X/Y/Z)	Patient4_TMGait_0pt2_01_right_10.trc.trc
DataRate	CameraRate	NumFrames	NumMarkers	Units	OrigDataRate	OrigDataStartFrame	OrigNumFrames
41.543026706231	41.543026706231	4	33	mm	41.543026706231	36	       141
Frame#	Time	Sacral			L.Shoulder			Chest			R.Shoulder			Neck			R.ASIS			L.ASIS			R.Thigh.Superior			R.Thigh.Lateral			R.Thigh.Inferior			R.Patella			L.Thigh.Superior			L.Thigh.Lateral			L.Thigh.Inferior			L.Patella			L.Shank.Superior			L.Shank.Lateral			L.Shank.Inferior			R.Shank.Superior			R.Shank.Lateral			R.Shank.Inferior			R.Heel			R.Midfoot.Superior			R.Midfoot.Lateral			R.Toe			L.Heel			L.Midfoot.Lateral			L.Midfoot.Superior			L.Toe			L.Elbow			L.Wrist			R.Elbow			R.Wrist			
		X1	Y1	Z1	X2	Y2	Z2	X3	Y3	Z3	X4	Y4	Z4	X5	Y5	Z5	X6	Y6	Z6	X7	Y7	Z7	X8	Y8	Z8	X9	Y9	Z9	X10	Y10	Z10	X11	Y11	Z11	X12	Y12	Z12	X13	Y13	Z13	X14	Y14	Z14	X15	Y15	Z15	X16	Y16	Z16	X17	Y17	Z17	X18	Y18	Z18	X19	Y19	Z19	X20	Y20	Z20	X21	Y21	Z21	X22	Y22	Z22	X23	Y23	Z23	X24	Y24	Z24	X25	Y25	Z25	X26	Y26	Z26	X27	Y27	Z27	X28	Y28	Z28	X29	Y29	Z29	X30	Y30	Z30	X31	Y31	Z31	X32	Y32	Z32	X33	Y33	Z33	

36	21.942500000000	805.336905742160	1008.136642194746	493.977724707132	1005.859025798635	1433.703321374008	336.063092020813	1074.899566836878	1372.958637129103	515.524702366184	958.179217429709	1448.467067028601	667.398729888318	952.695219082418	1497.883592972589	486.846228438863	1016.216475935948	949.695807411999	649.382242267266	1041.630489506952	959.713730590231	375.272483341402	1059.509265418586	746.474849383950	614.175295109440	974.279545808018	634.634231507594	666.620601405137	1052.882091088942	584.539794849575	588.026988803204	1052.352692872242	501.052626987524	590.598410027172	1032.856800453305	726.930865012527	394.534216688637	920.547651474010	636.511960470001	314.843555084620	974.737369780024	539.679082913197	377.923377612203	956.972485807640	472.021095760431	380.667192421080	916.816332576100	410.513548783825	364.642069748607	807.465377394318	320.207141499250	303.082911097613	834.383094839767	194.559818575055	363.872808829579	1031.637679595514	410.655556758530	596.479758053884	966.968533655988	302.240163566020	658.907545108099	1014.652382079195	210.814832499587	593.410795129959	887.939410949659	42.769293293551	564.567316192552	1059.899023130314	97.912893032762	596.313262206210	973.449963931584	37.165058614848	636.621541046370	1180.628172317726	47.886651155060	619.749108079448	680.132067697496	53.823677357837	389.441311482094	757.694145999522	43.766588546648	313.591035630496	844.982246612166	98.485708027824	343.583690553156	968.783902412049	37.924157932813	320.035089151866	1171.347508737100	1153.319852742689	189.375527416778	1430.693140639113	1167.065281224770	209.679210884216	818.333809953857	1131.183650230195	768.348777619001	804.298019208236	868.505447117600	772.387762007585	
37	21.966571428571	805.240202899371	1007.973865300883	501.375971188423	1003.069926518662	1433.436540488273	340.241373911848	1074.597993090129	1373.139198703350	518.942026569133	959.461496088576	1448.455039472777	672.158293036035	952.024412907465	1497.919217801631	491.457760355472	1017.813457631429	949.668695430121	654.342316579974	1040.265954272993	959.758234335908	379.993293111550	1059.959909909446	746.116895926763	618.209869380297	974.497647051305	634.235847491363	670.602216102485	1052.420406262578	584.174365495329	591.451893477839	1051.333464431752	500.350267823429	593.497918590868	1034.158513214085	727.448420728311	398.463319938052	922.313762901415	636.274706761509	319.260769909598	978.580462419211	539.226607271435	380.937890702213	961.555807433022	470.274522911295	382.813776212912	919.086905806602	409.614704023820	366.855570395828	807.313148105608	322.183549821761	305.369131982212	832.642048797689	195.452126455603	364.545490595592	1029.950049821428	410.021879576812	598.809779904972	964.678193533410	301.655555012003	660.774869450628	1011.263637587751	210.351140734933	594.333864294381	883.344798839406	42.680219119986	564.675797148028	1055.365545689578	97.889896800187	596.587557663341	968.880252771651	37.071960709966	636.716420052684	1176.091996130089	47.746216068789	619.845034895453	675.969469065830	57.450013607514	389.182005164150	753.319527600308	45.771653094077	313.444513861335	841.472861427795	99.044894375063	343.405803949109	963.991234695740	37.562120163568	320.127972174668	1162.301609075233	1147.656542062688	193.931829256846	1422.347011323218	1152.440356477468	213.939280809708	825.605607184269	1129.142515968442	777.554240716728	817.017084839080	866.418243565145	784.820127364819	
38	21.990642857143	805.066795433338	1007.613061906706	508.681678502656	999.847752149984	1433.139561944720	344.361122615758	1074.017220117681	1373.248123392146	522.202703183016	960.553954540543	1448.230252524612	676.880331825556	951.042556611052	1497.845047337121	496.070080938362	1019.371117938332	949.515767033924	659.092275365489	1038.769467284819	959.750638090619	384.525478557462	1060.531372465768	745.686143199676	622.087815560916	974.884943843730	633.723633358495	674.437030009990	1052.180369529502	583.748718600005	594.758136195863	1050.578942103398	499.523547834220	596.342016752238	1036.131220396370	728.065512652611	402.356995964459	925.270048283821	635.700019737491	323.647026022296	983.945908759884	538.679571607832	384.045316259067	967.788934757940	468.263583949420	384.955152373812	922.718162997912	408.462756088272	369.166173995289	808.334507154325	324.423534353180	307.788371940231	831.513222457311	196.650256326417	365.372274397385	1028.442461381424	409.274000238969	601.076161256303	962.481000221416	301.024508729432	662.571087154209	1007.915521947099	209.828331528788	595.222802129210	878.680917954527	42.621302202199	564.756807018646	1050.788187784086	97.853022091647	596.836210914435	964.236290600997	37.002734424167	636.795080474647	1171.482681928325	47.558287637555	619.923079001523	671.966954913094	62.185197635109	389.115496350849	748.953760710052	48.609427646940	313.446366111699	838.159255228264	99.975298177704	343.357351382708	958.965377544394	37.145493909352	320.290758388979	1151.413901071080	1141.290950471407	198.537088122303	1411.838283792097	1135.333073069495	218.140652992770	833.872558726488	1126.513601885881	786.626157750777	831.871742740331	863.885509033240	796.917488891858	
39	22.014714285714	804.782989245958	1007.039732842752	515.850093041110	996.260153445758	1432.775813378321	348.417914189389	1073.173365183467	1373.234770372384	525.313998810698	961.461105240884	1447.769844749672	681.540151572084	949.773264166423	1497.628260968947	500.662195514634	1020.844275041580	949.226473673497	663.625440764167	1037.123615738821	959.649848791615	388.867095806596	1061.238538574439	745.196803988560	625.793777375146	975.501587992742	633.085440132998	678.108061741697	1052.235426260327	583.264444913527	597.920791061817	1050.207776774450	498.553804753567	599.110669722643	1038.773635899094	728.809367506808	406.247998513634	929.519810520426	634.806183720958	327.984338110268	990.916634202725	538.113265085018	387.298212366855	975.732004357848	466.080210295741	387.141088190490	927.828871398031	407.117847650987	371.611451271414	810.667663058287	327.024318824656	310.401713091312	831.088535965210	198.270416682046	366.431637355871	1027.193456960074	408.396898928083	603.257761613412	960.432885914686	300.348830449425	664.281912540833	1004.635742389093	209.236158886986	596.071979953344	873.945652502811	42.592018829250	564.817987112406	1046.162792759896	97.796395600358	597.055111507533	959.516241525780	36.953904895093	636.864190517901	1166.803914937976	47.316779269289	619.989508106600	668.228870605356	68.238620419517	389.407246538722	744.644809739786	52.504382625305	313.717116957165	835.105742173590	101.417550713661	343.523242461541	953.694750450815	36.680098066072	320.510148101608	1138.720842792886	1134.305493266622	203.280732374423	1398.927653735183	1115.723903087787	222.368602090321	843.252561933304	1123.291501777448	795.468120681406	849.090117475934	860.979983376558	808.521135279251	
